<svg width="120" height="120" viewBox="0 0 120 120" fill="none" xmlns="http://www.w3.org/2000/svg">
<g clip-path="url(#clip0_260_1491)">
<path d="M111.237 51.0644L111.359 51.041C111.568 51.2375 111.65 51.5258 111.758 51.7856L112.397 53.3583L113.024 54.8005C113.158 55.1111 113.263 55.5203 113.513 55.7519L113.586 55.7091C113.495 55.265 113.557 54.9047 113.546 54.4628C113.539 54.1849 113.497 53.9016 113.462 53.6256C113.687 53.3271 113.757 52.9756 113.957 52.6969C114.046 52.5733 114.089 52.5863 114.23 52.5674C114.321 52.6242 114.41 52.673 114.461 52.7733C114.562 52.9756 114.558 53.2849 114.582 53.5083L114.747 54.9642C114.764 55.1599 114.748 55.3852 114.845 55.5563L115.251 55.6347C115.37 55.856 115.251 56.1964 115.26 56.455L115.369 57.9039L115.339 61.5352C115.329 62.1375 115.378 62.796 115.297 63.3889C115.271 63.5777 115.212 63.8252 115.06 63.955C114.845 64.1392 114.315 64.1919 114.055 64.1107C113.844 64.0449 113.849 63.6096 113.821 63.4124C113.663 62.2694 113.55 61.1221 113.319 59.99C113.086 58.8466 112.745 57.7413 112.334 56.6499C111.827 56.5088 111.054 56.6338 110.507 56.6189L110.823 57.8177C111.207 59.198 111.568 60.5722 111.822 61.9836C111.942 62.6527 112.073 63.3328 112.09 64.0138L111.975 64.1032C111.805 64.0939 111.721 64.1313 111.617 63.9769C111.47 63.7591 111.437 63.4071 111.383 63.1494L110.959 61.0621C110.66 59.6586 110.181 58.3091 109.849 56.9185L109.729 56.2831L109.685 56.0167C109.681 55.9935 109.694 55.9592 109.674 55.9469C109.664 55.941 109.46 55.9471 109.431 55.9471C109.021 55.9469 108.397 56.0394 108.086 55.7519L108.108 55.6347C108.531 55.4544 109.169 55.5238 109.631 55.5166C109.305 54.5972 108.895 53.5935 108.733 52.6341C108.919 52.4885 109.086 52.3511 109.308 52.2644C109.893 52.4783 110.7 54.9497 111.068 55.6063L111.722 55.5994C111.16 54.3464 110.825 52.8486 110.723 51.4814C110.828 51.3066 111.069 51.1824 111.237 51.0644Z" fill="#E8E8E8"/>
<path d="M114.084 56.1034C114.236 56.0781 114.165 56.064 114.297 56.1445C114.637 57.732 114.679 59.5137 114.701 61.1425L114.631 61.084L113.844 56.3965C113.907 56.237 113.948 56.2126 114.084 56.1034Z" fill="#282828"/>
<path d="M111.402 98.5253L111.562 98.4916L111.617 98.5841C111.283 99.9311 110.28 101.215 109.238 102.1L109.102 102.163C109.089 102.001 109.386 101.544 109.458 101.357C109.77 100.541 109.911 99.7519 109.798 98.8802C110.36 98.8113 110.863 98.6985 111.402 98.5253Z" fill="#282828"/>
<path d="M0 0H120V120H0V0Z" fill="#282828"/>
<path d="M57.1328 42.5684C57.3811 42.4791 58.1005 42.6848 58.4158 42.7209L58.4717 42.832L58.3369 43.0372C58.257 43.1003 58.1905 43.152 58.0877 43.1741C57.8753 43.2195 57.5947 43.1341 57.4197 43.0122C57.2184 42.872 57.1883 42.7923 57.1328 42.5684Z" fill="#E8E8E8"/>
<path d="M29.2227 12.1479C30.0491 12.2753 30.8052 12.5521 31.5977 12.8056C32.1292 12.9755 32.7358 13.1084 33.1667 13.4766C33.222 13.6443 33.2058 13.6451 33.1359 13.8103C32.997 13.8971 32.9738 13.927 32.8066 13.906C32.3038 13.8426 31.7447 13.6014 31.2694 13.4256C30.7786 13.2441 30.2064 13.0758 29.7766 12.7684C29.5583 12.6122 29.3853 12.3597 29.2227 12.1479Z" fill="#E8E8E8"/>
<path d="M65.6798 5.88868L65.8328 5.85791L65.9484 5.9358C66.0056 6.0715 66.0317 6.10929 66.0126 6.25305C65.8878 7.18699 65.3947 8.06082 65.0462 8.9259C64.8334 9.45454 64.5801 10.5265 64.1322 10.8654L63.927 10.9072C63.8672 10.8682 63.8151 10.8611 63.8054 10.7827C63.7647 10.4499 65.4112 6.32974 65.6798 5.88868Z" fill="#E8E8E8"/>
<path d="M72.1779 15.2636L72.2418 15.2578C72.4143 15.2622 72.508 15.3576 72.6265 15.4657C72.6659 15.5833 72.6652 15.666 72.623 15.7845C72.4798 16.1867 72.0212 16.5487 71.7248 16.8431L70.5196 18.0003C70.1824 18.3143 69.8938 18.6178 69.4716 18.816C69.3066 18.8185 69.2091 18.846 69.0685 18.7551C69.0398 18.6309 69.0576 18.524 69.106 18.4073C69.4855 17.4921 70.3285 16.7201 71.0537 16.0778C71.4076 15.7643 71.7337 15.446 72.1779 15.2636Z" fill="#E8E8E8"/>
<path d="M48.1367 4.07788C48.5014 4.44149 48.7802 4.86421 49.0698 5.28782C49.7347 6.26018 50.2519 7.22941 50.8088 8.26176C51.0203 8.6541 51.3369 9.08556 51.4214 9.52913C51.4513 9.68577 51.4064 9.68893 51.3228 9.81449L51.1536 9.90537C51.0622 9.89302 50.9913 9.87668 50.9163 9.81913C50.5484 9.53699 50.2742 8.96762 50.043 8.57295C49.4861 7.62313 48.9241 6.66918 48.5316 5.63671C48.3389 5.13004 48.2194 4.61229 48.1367 4.07788Z" fill="#E8E8E8"/>
<path d="M43.1688 47.4904L43.3163 47.5035C43.6713 47.9313 43.2657 48.3885 43.3304 48.8575C43.3449 48.9636 43.4513 49.0663 43.519 49.1429C44.0192 49.7085 44.796 50.083 45.412 50.5152C45.8374 50.8136 46.5742 51.333 46.6396 51.8818C46.662 52.0691 46.5546 52.2952 46.4356 52.4327L46.2596 52.3699L44.7748 51.5679C44.0067 51.1819 43.0057 50.8408 42.6784 49.9707C42.4395 49.3358 42.8745 48.0872 43.1688 47.4904Z" fill="#E8E8E8"/>
<path d="M90.8353 59.3017C91.0064 59.2942 91.2942 59.2542 91.4515 59.3235C91.6592 59.4147 91.8475 59.5847 91.9376 59.795C92.1545 60.3005 92.0439 61.0328 91.8451 61.5297C91.61 62.1185 91.307 62.4711 90.7215 62.7216C90.5493 62.7405 90.3742 62.7361 90.2051 62.6942C89.97 62.6361 89.7189 62.4647 89.612 62.2428C89.3898 61.7814 89.5498 60.7969 89.7368 60.3503C89.9653 59.8055 90.3148 59.5291 90.8353 59.3017Z" fill="#E8E8E8"/>
<path d="M90.9058 60.1466L91.0572 60.1241C91.1746 60.2078 91.2263 60.3102 91.2632 60.4471C91.3643 60.8211 91.0272 61.5866 90.8515 61.9275L90.7343 61.93C90.5741 61.605 90.3883 61.0083 90.4899 60.6538C90.559 60.4131 90.699 60.2741 90.9058 60.1466Z" fill="#282828"/>
<path d="M54.0352 55.6096C55.6577 56.3619 56.8391 58.0769 58.0483 59.3478C58.9888 60.3364 59.9705 61.2621 61.0689 62.0738C62.2067 62.9147 63.5438 63.7235 64.8856 64.1894L66.1163 64.5532C66.4359 64.6328 66.7936 64.6799 67.0725 64.8614L66.9434 64.9507C66.5616 65.0516 66.1714 65.1278 65.7752 65.0778C65.0023 64.98 64.2427 64.6627 63.5394 64.3405C61.2989 63.3141 59.5788 61.8452 57.8747 60.0971C56.4889 58.6755 55.2408 57.185 54.0352 55.6096Z" fill="#E8E8E8"/>
<path d="M43.3861 46.67C43.6561 46.6746 43.9511 46.8693 44.1819 46.9974L45.4121 47.6958C46.8307 48.496 48.176 49.1346 49.781 49.4846C50.2646 49.59 50.7749 49.6491 51.2688 49.6836C51.7196 49.7149 52.6903 49.564 53.0519 49.7897C53.1553 49.8543 53.1769 49.9827 53.1933 50.0977C53.3378 51.1119 52.9819 52.5213 52.3413 53.3175C51.6902 54.1269 50.9538 54.4207 49.9472 54.5385L49.5136 54.4929C49.3674 54.4525 49.2883 54.3916 49.2272 54.2579C49.4099 54.048 49.9855 53.996 50.246 53.9104C50.5072 53.8246 50.7608 53.6996 50.9922 53.5516C52.2094 52.7732 52.0457 51.6796 52.3225 50.4411C50.8549 50.4615 49.5811 50.2671 48.1732 49.8436C46.8688 49.4515 45.6146 48.8111 44.4467 48.115C44.0035 47.8508 43.5047 47.6071 43.2528 47.1388C43.253 46.8975 43.2185 46.8546 43.3861 46.67Z" fill="#E8E8E8"/>
<path d="M4.10156 40.7344C4.76202 41.2389 5.04783 41.9516 5.34175 42.7042L6.18456 45.2177L8.556 54.2348L10.8013 65.2852C11.2641 67.1458 11.7126 69.1047 12.7556 70.7419C13.2407 71.5033 13.9069 72.3467 14.7276 72.7661C15.0193 72.9153 15.3631 72.9867 15.6182 73.1949L15.5848 73.33L15.3915 73.3995C14.8693 73.528 14.1464 73.2783 13.7222 72.996C13.3396 72.7413 13.0127 72.3638 12.7311 72.0039C11.8799 70.9161 11.2674 69.5795 10.8181 68.2794C9.89503 65.6077 9.48592 62.7738 9.01071 59.9983L7.52564 52.6033L5.53009 45.2441C5.06734 43.7622 4.377 42.2567 4.10156 40.7344Z" fill="#E8E8E8"/>
<path d="M102.176 96.9546C103.818 97.4472 105.399 97.6104 107.106 97.628C108.039 97.6376 108.979 97.6218 109.903 97.4721L111.034 97.2616C111.318 97.1941 111.857 96.9669 112.128 97.0012C112.262 97.018 112.387 97.1479 112.454 97.2591C112.598 97.4983 112.562 97.8999 112.521 98.1641L112.506 98.2618C112.357 99.2404 111.949 100.054 111.414 100.878C109.806 103.354 106.812 104.446 104.05 105.014C103.554 105.116 102.443 105.398 102.019 105.117C102.011 104.966 102.026 104.941 102.099 104.806C102.209 104.74 102.293 104.686 102.378 104.59C102.06 103.884 102.235 102.945 102.269 102.177C102.338 101.258 102.491 100.21 102.79 99.3363C102.933 98.9194 103.144 98.5124 103.33 98.1126L102.533 97.8246C102.579 98.0463 102.62 98.2699 102.585 98.4962C102.504 99.0226 102.268 99.5816 102.126 100.099C101.912 100.881 101.794 101.671 101.486 102.425C101.396 102.151 101.29 101.861 101.258 101.572C101.14 100.487 101.591 99.2999 101.846 98.2487C101.449 98.6048 101.099 99.0601 100.75 99.4644C100.382 99.8907 99.9719 100.314 99.6733 100.792C99.6227 100.873 99.5347 100.991 99.5032 101.078C99.4676 101.177 99.4932 101.423 99.4874 101.535C99.4541 102.185 99.4041 102.775 99.5499 103.418L99.4618 103.492L99.3224 103.415C99.0071 102.904 98.9526 102.268 98.9507 101.681C98.9497 101.388 98.9169 101.043 99.0255 100.769C99.2535 100.193 99.8849 99.6176 100.286 99.1433C100.906 98.4113 101.501 97.6355 102.176 96.9546Z" fill="#E8E8E8"/>
<path d="M104.018 98.2485L104.707 98.3418C104.476 99.0746 104.328 99.8293 104.197 100.585L103.755 103.06C103.66 103.519 103.609 104.042 103.272 104.392L102.707 104.63C102.84 103.446 102.946 102.242 103.191 101.074C103.395 100.102 103.69 99.1842 104.018 98.2485Z" fill="#282828"/>
<path d="M105.393 98.4246L106.466 98.4888C106.361 99.046 106.366 99.6166 106.321 100.18L106.101 102.92L106.173 102.989C106.32 102.963 106.488 102.938 106.594 102.823C106.839 102.558 106.903 102.033 106.957 101.683C107.122 100.626 107.172 99.6141 107.169 98.5452L108.278 98.5499C108.224 98.8769 108.231 99.2332 108.216 99.5655C108.172 100.477 108.089 101.347 107.636 102.158C107.11 103.103 105.947 103.658 104.948 103.941C104.912 102.129 105.212 100.229 105.393 98.4246Z" fill="#282828"/>
<path d="M93.9728 98.5841L94.0344 98.5904C94.0658 98.6027 94.1019 98.6149 94.1212 98.6425C94.2408 98.8143 94.2997 100.659 94.3386 100.986C94.3822 101.352 94.4509 101.72 94.5422 102.076C94.617 102.121 94.8359 102.216 94.882 102.275C95.0305 102.468 95.1359 102.921 95.2359 103.159C95.4109 103.574 95.6514 103.976 95.9309 104.329C96.5023 105.052 97.3181 105.665 98.067 106.19C98.5086 106.499 98.998 106.788 99.5067 106.971C100.857 107.455 102.345 107.548 103.645 108.183C104.218 108.463 105.026 108.955 105.233 109.6C105.32 109.874 105.295 110.19 105.156 110.445C104.773 111.148 103.809 111.386 103.101 111.604L105.017 111.669C105.302 111.679 105.667 111.652 105.89 111.856L105.863 111.943C105.537 112.106 105.024 112.077 104.664 112.083L102.131 112.088C100.264 112.033 98.4266 111.959 96.5931 111.563C95.9456 111.423 95.263 111.265 94.6634 110.98L94.5866 110.943L94.0891 111.111C93.8319 111.178 93.4156 111.212 93.1833 111.08L93.1825 110.83C93.3751 110.601 93.5972 110.633 93.8848 110.589C92.8986 110.193 92.0667 109.756 91.2903 109.015L91.5239 109.948C91.2578 109.972 91.0264 109.953 90.763 109.912C90.6594 109.831 90.6367 109.832 90.5859 109.7C90.4641 109.384 90.5214 108.926 90.5206 108.585C90.5178 107.327 90.4581 105.758 90.9722 104.585C91.4001 103.608 93.0395 102.698 93.9816 102.31C93.7372 101.446 93.6887 100.46 93.7114 99.5652C93.7209 99.1904 93.6839 98.8571 93.9728 98.5841Z" fill="#E8E8E8"/>
<path d="M94.5348 103.163C94.7748 103.522 94.934 103.938 95.1609 104.309C95.6582 105.12 96.3402 105.761 97.0202 106.416L97.0124 106.494L96.8593 106.478C96.5412 106.462 96.252 106.674 95.9982 106.843C95.3827 107.255 94.7473 107.696 94.1951 108.19C94.4544 108.383 94.6965 108.507 94.992 108.633C95.511 108.406 95.9324 108.005 96.3734 107.658L97.4696 106.841L98.5737 107.439C98.1573 107.552 97.7874 107.724 97.427 107.959C97.0054 108.234 95.7976 108.98 95.6915 109.483L95.8862 109.658C96.5554 109.787 97.5023 108.815 98.0702 108.471C98.3513 108.301 98.8774 107.977 99.2048 107.947C99.4774 107.923 100.027 108.13 100.305 108.198C99.4071 108.35 98.8401 108.569 98.0502 109.018C97.7484 109.178 97.4996 109.341 97.2732 109.6C97.2673 109.781 97.2454 109.808 97.354 109.949C97.7773 110.07 98.273 110.038 98.7105 110.041L102.045 109.918C102.45 109.908 103.105 109.82 103.401 110.104L103.389 110.23C103.181 110.404 102.914 110.468 102.657 110.537C101.78 110.773 100.818 110.813 99.9134 110.832C98.0001 110.873 95.8638 110.607 94.123 109.784C93.0804 109.29 92.101 108.547 91.2682 107.753C91.1498 106.932 91.2626 105.815 91.412 104.998C91.457 104.752 93.4213 103.835 93.7654 103.649C94.033 103.504 94.2841 103.335 94.5348 103.163Z" fill="#282828"/>
<path d="M95.2513 105.362C95.4147 105.339 95.5503 105.343 95.7136 105.355C95.8491 105.474 95.8947 105.521 95.9413 105.703C95.7595 106.027 93.3891 106.966 92.955 107.112C92.8091 107.152 92.7263 107.144 92.5789 107.114C92.4539 107.018 92.3995 106.964 92.3398 106.816C92.5719 106.391 94.7792 105.524 95.2513 105.362Z" fill="#E8E8E8"/>
<path d="M32.075 93.1348C33.8857 92.9744 35.7699 93.1121 37.5866 93.1435L46.4202 93.2468L56.1876 93.1612C57.9357 93.1313 59.6972 93.0263 61.4452 93.0955C61.9296 93.1148 62.6594 93.1637 63.0386 93.4927C63.2465 93.673 63.3526 93.9844 63.3604 94.253C63.3707 94.6093 63.2354 94.8829 62.9785 95.1269C62.5057 95.5765 61.6344 95.7049 61.0046 95.7899C60.3035 95.8844 59.5901 95.8857 58.884 95.9098L55.3819 95.979L47.5288 95.9751L47.5193 98.3999C47.5176 98.516 47.466 99.0163 47.5079 99.0988C47.5496 99.1813 47.9319 99.3919 48.0207 99.4574C48.3397 99.6919 48.6347 99.9604 48.9233 100.231L53.2435 104.635L55.0997 106.449C55.5651 106.889 56.1916 107.361 56.5299 107.903C56.3441 107.976 55.8807 108.073 55.6904 108.012L55.5963 107.966C55.0154 107.698 54.5279 107.235 54.0477 106.817C52.7726 105.707 51.5994 104.47 50.4069 103.273C49.5 102.347 48.5796 101.228 47.5454 100.456L47.5413 105.3C47.5455 105.843 47.651 106.588 47.5372 107.105C47.5043 107.255 47.4668 107.258 47.3425 107.33C47.1093 107.341 46.888 107.377 46.6779 107.256C46.5727 106.947 46.6302 106.479 46.6299 106.149L46.6216 103.89L46.5208 100.096L43.1532 103.126C42.3579 103.849 38.4969 107.628 37.9075 107.757C37.738 107.795 37.451 107.776 37.2993 107.684C37.2088 107.629 37.23 107.615 37.2113 107.52C37.4791 106.947 38.1146 106.448 38.5686 106.005L41.4269 103.289C42.6129 102.151 43.7513 100.916 45.0282 99.8809C45.4796 99.5149 45.9638 99.2396 46.4971 99.0123L46.4721 95.9648L37.2925 96.0387C35.4149 96.0415 33.4327 96.1466 31.568 95.918C30.8963 95.8357 30.1618 95.7094 29.6043 95.2974C29.2935 95.0679 29.0688 94.7729 29.0199 94.3848C28.9885 94.1351 29.0099 93.8744 29.1866 93.6801C29.6807 93.1368 31.3418 93.1787 32.075 93.1348Z" fill="#E8E8E8"/>
<path d="M46.121 21.1717L46.6695 21.1495L46.6917 21.2403C46.3473 21.5563 45.8665 21.7264 45.4757 21.9867C44.5356 22.613 43.8182 23.4986 43.6009 24.6255L43.5821 24.7266C43.4001 25.6591 43.557 26.7856 43.9465 27.6478C44.0195 27.3802 44.0099 27.0808 44.0307 26.8044C44.081 26.1395 44.2509 25.5441 44.5509 24.9486C45.0729 23.912 46.0148 23.2578 47.101 22.9124C48.6796 22.4103 50.5295 22.7402 51.9746 23.4903C52.0946 23.3505 52.2178 23.2072 52.359 23.0883C52.6838 22.8152 53.0909 22.6155 53.4663 22.423C55.2407 21.5124 57.4315 21.1167 59.4182 21.2798C60.9045 21.4019 62.2768 22.1238 63.232 23.2661C64.0454 24.2391 64.4676 25.613 64.3573 26.8744C64.1354 29.412 62.4873 31.4447 60.2998 32.6488C59.5995 33.0344 58.7495 33.2978 58.1382 33.8117C58.4651 34.7188 58.7153 35.9117 59.3526 36.6419L60.9773 36.313C61.1984 36.2908 61.5056 35.2866 61.9099 35.1222C61.944 35.1681 61.959 35.1809 61.9748 35.2441C62.134 35.8799 61.5242 38.1542 61.1174 38.6841C61.0288 38.7994 60.9281 38.7791 60.7904 38.7999L60.7424 38.8769C60.8073 38.9616 60.8642 39.0419 60.9115 39.1381C60.9918 39.3011 61.0081 39.5108 61.024 39.6891C61.0293 39.7486 61.0607 39.9206 61.0453 39.976C60.9745 40.2297 60.5134 40.5403 60.2903 40.663C60.1854 40.7206 60.0456 40.757 60.002 40.8691L60.146 40.9624C60.4837 42.1591 60.0021 44.0024 59.4071 45.0666C58.7854 46.1789 57.6788 46.9669 56.4623 47.3089C54.3865 47.8927 52.1848 47.4666 50.3288 46.4216C49.0124 45.6805 47.7881 44.5825 46.9943 43.2902C46.8245 43.0136 46.6118 42.6786 46.5431 42.3589C46.4926 42.1242 46.5354 42.0524 46.6542 41.8653L46.7867 41.8555L47.9096 43.3735C49.467 45.248 51.5723 46.5685 54.034 46.7902C55.5853 46.9299 56.9259 46.6333 58.1382 45.6203C59.4442 44.2847 59.4996 42.6663 59.6393 40.9006C59.1031 41.0022 58.5313 41.0714 57.9863 40.9967C57.2692 40.8985 56.7354 40.5655 56.3132 39.9814C55.844 39.3325 55.9435 38.5067 56.0557 37.7641C55.4638 37.9428 54.8792 38.08 54.2551 38.0674C52.8953 38.04 52.0013 37.1325 51.3817 36.0089C51.1901 35.6616 51.0548 35.2755 50.7729 34.9902C50.7049 34.9213 50.6303 34.8577 50.5781 34.7753C50.5393 34.7141 50.5059 34.6734 50.532 34.5995C50.6156 34.3619 50.9223 34.1256 51.1063 33.96C51.8415 33.2988 52.7062 32.5891 53.6346 32.2195C53.9067 32.1113 54.531 32.0709 54.7203 31.9345C54.8803 31.8192 54.9504 31.5599 54.9726 31.3769C54.8226 31.2372 54.5982 31.2197 54.4038 31.1747C53.9887 31.0786 53.5731 30.9739 53.1707 30.8333C52.6082 30.6366 52.0828 30.3056 51.5184 30.1349C50.7054 30.3702 49.9742 30.7395 49.3998 31.3761C47.191 33.8238 50.6745 35.8183 50.7359 38.2825C50.7448 38.6456 50.6456 39.0361 50.3723 39.2913C50.066 39.5774 49.6492 39.648 49.2476 39.6111C47.6279 39.4624 47.0601 37.7138 46.2081 36.6491C45.9368 36.7127 45.6893 36.7978 45.4498 36.9434C45.2007 37.0947 44.847 37.3828 44.7956 37.6892C44.6968 38.2772 45.0771 39.0656 45.4376 39.5244C45.786 39.9677 46.1981 40.326 46.7467 40.4945C47.3351 40.6755 48.097 40.6178 48.7174 40.6863C48.2857 40.9481 47.8956 41.1316 47.399 41.2339C46.536 41.4116 45.9732 41.1208 45.267 40.658L45.1456 40.797C44.6937 41.2355 43.9788 41.4842 43.3588 41.4827C42.2287 41.4797 41.191 40.881 40.4207 40.0883C39.4923 39.1328 38.5929 37.6042 38.6263 36.2352C38.6487 35.3159 39.0092 34.8674 39.6523 34.2645C38.4846 34.2992 37.2848 33.9753 36.3629 33.2388C35.4368 32.4989 34.8471 31.445 34.7307 30.2631C34.6135 29.0731 35.0235 27.8244 35.7926 26.913C36.6146 25.9389 37.7796 25.3345 39.0523 25.2308C40.5318 25.11 41.7671 25.4077 42.9107 26.3749C42.7381 25.2863 42.7729 24.3922 43.289 23.3959C43.8893 22.2366 44.9037 21.5525 46.121 21.1717Z" fill="#E8E8E8"/>
<path d="M61.005 36.8847L61.0711 36.9506L60.945 38.2963L60.3697 37.8224L59.832 37.2461C60.2359 37.1986 60.6016 37.1517 60.948 36.9238L61.005 36.8847Z" fill="#282828"/>
<path d="M55.9459 32.1388C56.355 32.0523 56.8197 32.1222 57.2366 32.1383L59.0794 32.175C58.7542 32.3992 58.4848 32.6488 58.2066 32.9281L57.8247 33.4344C57.4241 32.9941 57.025 32.698 56.4522 32.5211C56.2194 32.4492 55.978 32.4214 55.7491 32.335L55.7422 32.2559L55.9459 32.1388Z" fill="#282828"/>
<path d="M59.6602 22.1538C60.2634 22.2915 60.7769 22.4538 61.2948 22.8021C62.2489 23.4433 62.9536 24.5013 63.1623 25.6371C63.4609 27.2632 62.9678 28.6818 62.0656 30.0149C61.9745 30.1313 61.9197 30.2144 61.782 30.2779C62.5356 28.7176 63.0128 27.378 62.5414 25.6441C62.0913 23.9877 61.1102 22.9944 59.6602 22.1538Z" fill="#282828"/>
<path d="M39.2771 26.0967C40.2825 25.9121 41.5286 26.3251 42.3614 26.86C41.4135 26.5779 40.6766 26.3776 39.6693 26.479C39.3355 26.5126 39.0135 26.6003 38.7025 26.7265C37.8099 27.0889 37.1378 27.8986 36.7843 28.7751C36.3743 29.7917 36.6055 30.8511 37.0208 31.8211C37.3614 32.4472 37.7538 32.8734 38.2602 33.3681C37.8146 33.2078 37.3966 33.0365 37.015 32.7473C36.2341 32.155 35.64 31.2251 35.5246 30.2442C35.4133 29.2979 35.7608 28.3134 36.3402 27.572C37.1177 26.577 38.0593 26.2434 39.2771 26.0967Z" fill="#282828"/>
<path d="M54.2223 32.8895L54.5916 32.8651C54.8577 32.8633 55.1294 32.9923 55.3777 33.0804C55.8336 33.2423 56.3472 33.3578 56.7 33.7083C57.5266 34.5292 57.9119 35.7759 58.5448 36.7454C58.9947 37.4345 59.6105 38.0484 59.9934 38.7758C60.1489 39.0708 60.2842 39.4198 60.2847 39.7559C60.2325 39.8195 60.1828 39.8831 60.1152 39.9315C59.5972 40.3037 58.8038 40.3109 58.1958 40.2308C57.8506 40.1851 57.3489 40.0415 57.1417 39.7351C56.7181 39.1089 57.2044 37.5694 57.3513 36.8578C57.4753 35.9903 57.2922 35.144 56.9095 34.3584C56.7848 34.1022 56.6067 33.7615 56.3125 33.6792C56.1933 33.6459 56.1964 33.6697 56.0947 33.7206C56.0123 34.1842 56.3756 34.8989 56.4852 35.374C56.5705 35.7439 56.6048 36.0995 56.6197 36.4779C56.4394 36.7664 56.0753 36.9479 55.7669 37.0697C55.09 37.3365 54.1734 37.4847 53.4936 37.1701C52.5169 36.7181 51.9589 35.4345 51.6016 34.4929L51.6356 34.425C52.1809 33.6987 53.3814 33.1567 54.2223 32.8895Z" fill="#282828"/>
<path d="M4.44946 39.2773C5.3919 39.3092 6.20631 39.5794 6.97126 40.1327C7.70451 40.663 8.35307 41.3566 8.83432 42.1233C9.49378 43.1738 9.92329 44.3617 10.3304 45.5273C11.185 47.9745 11.8651 50.6064 12.2918 53.1647L16.2309 52.8372L13.8245 45.9375C13.4511 44.9281 13.0081 43.9381 12.7061 42.9039C12.6356 42.6623 12.5229 42.2886 12.6128 42.0444C12.7001 41.807 13.015 41.5775 13.2451 41.4988C14.1945 41.1739 15.6869 41.6898 16.5211 42.1561C19.528 43.8369 21.3178 47.2758 22.593 50.3395C23.2723 51.9719 23.8666 53.6258 24.3451 55.3291C25.5951 59.7778 26.4664 64.4239 26.8284 69.0317C26.9916 71.1075 27.0856 73.1611 26.9787 75.2436C26.9076 76.6302 26.8014 78.4481 26.0814 79.6722C25.7595 80.2192 25.3376 80.3644 24.7555 80.508C24.5637 80.5292 24.3711 80.543 24.185 80.5956L24.1936 80.6641C24.332 81.6833 24.6831 82.8897 25.3334 83.7092C27.0222 85.8375 30.6623 86.0266 33.1703 86.1047C33.5294 86.1158 34.3547 86.0458 34.6181 86.25L34.5894 86.3794C34.3383 86.656 33.9673 86.7414 33.6044 86.7769C31.2589 87.0061 27.2786 86.5357 25.4214 84.9736C24.1358 83.8922 23.6562 82.1135 23.5417 80.4917L23.5367 80.4121C22.6326 80.3592 21.6709 80.045 20.8464 79.683C19.2398 78.9778 17.9414 77.4867 17.1698 75.9375C16.6059 74.805 16.3194 73.5497 16.0055 72.3302L15.0818 68.8236L13.5987 63.2733L11.3722 54.0234C10.6403 51.1272 9.857 48.2139 8.77889 45.4234C8.1944 43.9106 7.60353 42.5781 6.42704 41.4291C6.04974 41.0606 5.63927 40.7028 5.15868 40.4744C4.66035 40.2377 4.10676 40.1817 3.60443 39.9598C3.46279 39.7894 3.45868 39.8 3.46773 39.58C3.75895 39.353 4.09535 39.3189 4.44946 39.2773Z" fill="#E8E8E8"/>
<path d="M13.3008 42.7166L13.5515 42.8869C14.4895 43.5477 15.0699 44.7859 15.5541 45.7902C16.3999 47.5441 16.9807 49.3673 17.517 51.2325L18.4212 54.5453L19.7691 61.8583L20.3427 65.8942L20.3638 66.0059L20.3162 66.0033C19.239 60.3017 17.7032 54.7733 15.7913 49.2962L14.2493 45.1562C13.9295 44.3431 13.5597 43.5522 13.3008 42.7166Z" fill="#282828"/>
<path d="M15.9082 53.6375L16.403 53.6107C16.8179 55.2927 17.466 56.9318 17.9277 58.6061L19.3563 64.8936L20.4241 69.8077C21.0872 72.8761 21.7196 75.7652 21.2844 78.9202C20.5866 78.576 20.0094 78.1288 19.4238 77.6213C18.6196 76.8899 18.0224 75.9641 17.6097 74.9625C17.0636 73.6371 16.7494 72.2361 16.4213 70.8449L15.4345 66.6091L14.4021 62.2485L12.5781 53.9177L15.9082 53.6375Z" fill="#282828"/>
<path d="M73.2617 65.571C73.2992 65.3624 73.3394 65.1605 73.433 64.9685C73.4947 64.8418 73.5823 64.7296 73.6689 64.6189C73.9677 64.5482 74.2611 64.4843 74.5683 64.4627L77.0409 64.3875C77.1917 64.3863 77.7311 64.4325 77.848 64.3539C77.9231 64.3035 78.09 63.9886 78.1441 63.8966L78.2783 63.6388L85.037 63.6003C85.3295 62.1839 85.8174 60.7914 86.2303 59.4061C86.607 58.1428 86.9133 56.7425 87.4736 55.5502L83.29 55.5796L81.0439 55.5889C80.5703 55.5869 80.0147 55.628 79.5816 55.413C79.4227 55.2244 79.3983 55.1306 79.4223 54.8846C79.4875 54.2171 79.7442 53.5546 79.9216 52.9102L80.8545 49.3494L82.7258 41.4288L83.6028 38.086C83.757 37.4791 84.2372 34.937 84.6331 34.6163C84.9967 34.3216 85.8509 34.333 86.2992 34.325L93.4927 34.4877L102.121 34.541L106.805 34.5086L107.977 34.4966C108.163 34.495 108.428 34.4661 108.603 34.5244C108.756 34.5753 108.898 34.7261 108.964 34.8733C109.057 35.0781 109.048 35.3197 109.026 35.5378C108.886 36.9564 108.465 38.3997 108.165 39.7956L106.04 48.7813L105.098 52.3791C104.89 53.1239 104.697 53.9152 104.372 54.6169C104.223 54.9363 104.032 55.165 103.693 55.2899C103.159 55.4866 102.399 55.4447 101.829 55.4667L98.172 55.5599L97.2347 58.6421L96.2766 62.0925C96.0955 62.6619 95.8938 63.3505 95.4777 63.7911C95.3034 63.8294 95.2872 63.8425 95.1261 63.7717C95.0459 63.3871 95.4544 62.5482 95.5644 62.15L97.3972 55.8246C97.6824 54.941 97.8986 54.0572 98.3378 53.2324L88.6938 53.9721L86.5178 60.84C86.1836 61.8949 85.9394 62.9958 85.5419 64.0288C85.4545 64.2557 85.3389 64.4458 85.1892 64.6358L101.542 64.4938L101.638 64.3946C101.598 64.0774 101.582 63.8992 101.319 63.7013C100.632 63.1832 99.7063 62.7428 99.552 61.7875C99.4781 61.3297 99.5678 60.875 99.8467 60.501C100.384 59.781 101.364 59.6116 102.204 59.5097C103.159 59.3939 104.577 59.4508 105.355 60.0783C106.103 60.6819 106.545 61.6622 106.635 62.6075C106.668 62.9416 106.685 63.3814 106.435 63.6419L106.376 63.6985C106.208 63.5339 106.177 63.1864 106.115 62.9533C105.856 61.9899 105.406 60.8585 104.413 60.4507C103.942 60.2575 103.478 60.2357 102.978 60.2419L102.509 60.251C102.926 60.398 103.404 60.5455 103.772 60.7966C104.262 61.1314 104.629 61.6958 104.881 62.2247C105.222 62.9396 105.28 63.6177 105.231 64.3968C106.869 64.4003 116.976 64.2616 117.577 64.7753C117.623 64.815 117.634 64.8435 117.659 64.8925C117.619 65.0508 117.591 65.0528 117.448 65.135C117.142 65.3122 116.753 65.3647 116.404 65.3785L112.334 65.4105L105.1 65.4633L73.3995 65.953C73.388 65.7528 73.3803 65.7327 73.2617 65.571Z" fill="#E8E8E8"/>
<path d="M85.1445 35.2833L108.194 35.3924C108.522 36.1168 105.008 49.8205 104.529 51.5991L103.652 54.5696L98.5838 54.6886L99.1455 53.2857L99.1442 53.053C99.1381 52.8833 99.112 52.768 98.9819 52.6507C98.8689 52.5488 98.7528 52.5138 98.6047 52.5011C97.8123 52.4335 96.9016 52.6013 96.1052 52.6777L93.8391 52.8302L94.4219 51.6755C94.6556 51.1394 94.9422 50.413 94.715 49.8416L94.5978 49.7947C93.7378 49.906 92.6572 49.8663 92.0595 50.5846C91.4927 51.2657 91.4738 52.159 91.5566 52.9921C90.507 53.0352 89.1603 52.9832 88.1894 53.3838C87.9311 53.6401 87.795 54.256 87.6845 54.5976C87.145 54.7155 86.4294 54.6405 85.8689 54.6543L80.2695 54.7296L85.1445 35.2833Z" fill="#282828"/>
<path d="M103.933 44.8568C104.368 44.8323 104.833 44.7759 105.265 44.8284C105.34 44.8797 105.384 44.8797 105.397 44.9765C105.439 45.3039 105.328 45.6839 105.148 45.9554C104.799 46.1211 103.926 46.0114 103.516 46.01L99.0946 45.9923C98.741 45.9904 97.8909 46.0911 97.6235 45.9081C97.6093 45.53 97.6574 45.2483 97.7709 44.8876L103.933 44.8568Z" fill="#E8E8E8"/>
<path d="M88.586 44.7383L89.953 44.713C90.281 44.709 90.6227 44.6722 90.939 44.7694C91.033 44.8835 91.0402 44.8929 91.0488 45.0421C91.0624 45.278 91.0263 45.5194 90.8551 45.6963C90.7288 45.8266 90.554 45.9263 90.3763 45.9635C89.9522 46.0524 89.436 46.0094 88.9968 46.0163L85.8852 46.0413L83.6707 46.0465C83.5738 45.6352 83.5247 45.3066 83.6272 44.8915C83.889 44.7151 87.9016 44.7501 88.586 44.7383Z" fill="#E8E8E8"/>
<path d="M94.3474 41.8439C94.8153 41.8222 95.206 41.8261 95.5746 42.1669C95.8241 42.3975 95.9438 42.7883 95.9367 43.1211C95.9222 43.8178 95.5782 44.2183 95.1011 44.6675C95.3447 44.9539 95.6092 45.0772 95.6991 45.4723C95.9055 46.3797 95.4338 47.3525 94.936 48.0852C94.5146 48.7055 94.0369 49.0562 93.2963 49.2087C93.0585 49.2237 92.7817 49.1955 92.5594 49.1087C92.1991 48.9683 91.9394 48.6355 91.8019 48.2839C91.538 47.6097 91.6349 46.8481 91.9371 46.2047C92.3396 45.3473 92.9088 44.9589 93.7627 44.6423C93.5794 44.4652 93.3916 44.2945 93.2922 44.0544C93.1417 43.6905 93.1894 43.1055 93.3407 42.7497C93.5339 42.2955 93.9105 42.0322 94.3474 41.8439Z" fill="#E8E8E8"/>
<path d="M73.4031 65.953C73.389 66.0516 73.5788 66.3667 73.6301 66.4716L87.9793 65.9619C87.0724 66.3213 86.1281 66.3477 85.1742 66.486L81.3553 67.0086C81.329 67.2685 81.257 67.8577 81.0982 68.0566C80.8909 68.3166 80.0412 68.2197 79.7071 68.2153L74.7357 68.2283C74.4613 68.233 73.8745 68.1703 73.6273 68.2558C73.481 68.3063 73.1662 68.6952 73.0123 68.8185C72.7466 69.031 72.4221 69.2046 72.1048 69.3275C71.3148 69.6336 70.4671 69.8022 69.6391 69.9706C67.9657 70.311 66.3015 70.5314 64.6004 70.6727L63.7913 74.1553C63.7137 74.6967 63.7246 75.2305 64.0996 75.6738C64.2306 75.8286 64.3141 75.9239 64.5145 75.9372L64.5399 75.8678L64.2213 75.2891C64.5699 75.0972 64.9516 74.9866 65.3232 74.8481L67.1376 74.186C71.2931 72.6925 75.4085 71.5855 79.8284 71.2794C81.1304 71.1891 82.4768 71.1436 83.7738 71.3264C84.8254 71.4746 85.8488 71.7519 86.781 72.272C90.3053 74.2383 91.9098 78.5288 93.7887 81.8736L97.6698 88.071C98.0735 88.6699 98.4212 89.3163 98.8559 89.8922L98.8626 86.7817L98.9693 74.5444L98.9487 68.2969C98.9548 68.1389 98.9754 68.0256 99.036 67.881C99.2006 67.7963 99.2139 67.7972 99.3978 67.8222C99.5307 67.9656 99.546 68.0242 99.5717 68.2195C99.7162 69.3194 99.6925 70.5083 99.7023 71.6175L99.7134 76.5669L99.6193 84.5508L99.5631 90.3932C99.6984 90.52 99.9621 90.7807 100.009 90.956C100.087 91.2438 100.019 92.1491 99.9181 92.4316C99.8521 92.6164 99.6748 92.8788 99.6932 93.0644C100.469 93.808 101.224 94.5317 102.16 95.073C102.476 93.7652 102.422 92.2793 102.434 90.9399L102.467 86.5053L102.574 74.6135L102.587 71.535C102.59 70.8883 102.529 70.1463 102.686 69.5175L102.716 69.4044C102.771 69.185 102.813 69.0149 102.949 68.8317L103.003 68.8477L103.081 69.1406C103.344 70.3522 103.255 71.6963 103.253 72.9306L103.151 79.9664L103.067 87.9988L102.991 92.7835C102.946 93.4957 102.955 94.6027 102.529 95.2113C102.298 95.5413 101.786 95.7999 101.456 96.0299C100.573 96.6464 99.6993 97.2807 98.766 97.8202C98.0745 98.22 97.3567 98.5413 96.6295 98.8683C96.251 99.0386 95.8126 99.2818 95.4034 99.3416C95.2534 99.3636 95.2151 99.3457 95.0968 99.2486C94.8343 99.0336 94.7728 98.6077 94.7488 98.291C94.8534 98.0574 94.9429 98.0185 95.147 97.8716C94.874 97.3477 94.697 96.8166 94.5201 96.2541C93.6657 97.4083 91.2156 98.5232 89.8363 98.9625C89.5342 99.0588 89.2207 99.1508 88.9313 98.9763C88.6953 98.8339 88.4607 98.5211 88.2895 98.3047C87.5054 97.3135 86.9099 96.1511 86.2526 95.0735C84.8401 92.7578 83.3481 90.4588 82.1743 88.0105C81.3829 86.3596 80.7023 84.6702 80.1737 82.9161L76.8573 85.3894C74.8485 86.6814 72.6945 87.7442 70.514 88.7116C67.389 90.098 64.0365 91.2564 60.6784 91.9119C55.2716 92.9672 49.5391 92.8905 44.0491 92.7986L38.4549 92.6516C37.7235 92.6185 36.9033 92.6486 36.1946 92.4769C35.9432 92.4161 35.7298 92.2935 35.4932 92.1972C34.808 91.9185 34.1576 91.7894 33.7385 91.1063C33.2951 90.3832 33.3585 89.681 33.5451 88.8921L29.0001 88.5482C28.6307 88.4917 28.2727 88.431 28.0399 88.1175C28.0115 87.9517 27.9777 87.8966 28.0569 87.7442C28.2535 87.6497 28.421 87.6557 28.6357 87.6527L32.1562 87.7622L37.0613 87.7216C36.9248 86.9705 36.6816 86.1864 36.6344 85.4297C36.6237 85.2569 36.6176 85.0721 36.7129 84.9202L36.7702 84.8372C36.6968 84.6742 36.1524 84.6794 35.9696 84.6661C34.279 84.5425 32.5269 84.3738 31.0441 83.4656C30.1704 82.9305 29.6529 82.0989 29.4191 81.1186C29.1008 79.7833 29.0871 78.3578 29.1558 76.9922C29.2663 74.7966 29.621 72.5408 30.1797 70.4138L31.293 66.8472C32.3357 63.6525 33.5535 60.4391 35.3466 57.5808C36.754 55.3375 39.0249 52.6325 41.7219 52.0395C42.9734 51.7642 44.1618 51.9066 45.2832 52.5233C47.9743 54.0031 48.952 56.9638 49.9921 59.6485C50.5912 61.1947 51.2738 62.7999 52.2598 64.1419C52.6801 64.7142 53.189 65.2688 53.7615 65.6916C54.0746 65.9228 54.4384 66.1081 54.769 66.3164C57.9166 66.2986 61.0402 66.3213 64.1823 66.0713C65.0573 66.0016 65.9773 66.0102 66.8165 65.7245C67.7341 65.4124 68.4726 64.7706 69.3093 64.3028C70.0807 63.8716 70.8901 63.6449 71.7637 63.916C72.244 64.065 72.7248 64.3681 72.9484 64.8341C73.0498 65.0455 73.0931 65.2783 73.212 65.4827L73.2652 65.571C73.3838 65.7327 73.3915 65.7528 73.4031 65.953Z" fill="#E8E8E8"/>
<path d="M34.8905 89.2091L34.9975 89.2675C34.8044 90.0144 34.7727 90.4444 34.9721 91.2013L34.9216 91.2836L34.7419 91.1425C34.5407 90.9366 34.3933 90.7011 34.3143 90.4225C34.2447 90.1771 34.2275 89.6888 34.3674 89.4716C34.4996 89.2663 34.6721 89.2518 34.8905 89.2091Z" fill="#282828"/>
<path d="M54.7734 77.5637C54.8263 77.5261 54.8727 77.4767 54.932 77.4506C55.0805 77.3855 55.6553 77.4514 55.8392 77.4519L58.1864 77.4831C58.6423 77.4898 59.1317 77.4609 59.5813 77.5394L59.6306 77.5487C59.5577 77.6519 59.3827 77.6406 59.2605 77.6803C57.7684 77.7241 56.2572 77.7501 54.7734 77.5637Z" fill="#E8E8E8"/>
<path d="M70.9028 66.8062L71.0469 66.8066C71.6825 66.8443 72.295 67.7271 72.7027 68.1719C72.5095 68.3244 72.3194 68.4448 72.1016 68.5591L71.973 68.5885C71.8097 68.4565 71.7077 68.2622 71.5966 68.086C71.3403 67.6802 70.7164 67.3372 70.3438 67.0115C70.4395 66.8654 70.7284 66.8466 70.9028 66.8062Z" fill="#282828"/>
<path d="M70.6419 64.5804C70.9709 64.5572 71.3125 64.5297 71.6116 64.6972C72.22 65.0382 72.5195 65.7619 72.8111 66.3607C73.0669 66.8858 73.3017 67.3543 73.4558 67.9216C72.7423 67.3672 72.4184 66.3083 71.4006 66.1815C70.8466 66.1124 70.0627 66.2546 69.6378 66.6386C69.51 66.7543 69.4731 66.8347 69.4614 67.0019C69.6766 67.3065 69.9956 67.539 70.2777 67.7815C70.6572 68.1077 71.005 68.4336 71.3353 68.8102C70.9813 68.8519 70.6372 68.9511 70.292 69.0383L64.8359 69.9885C65.1139 68.8957 65.3428 67.9715 65.3698 66.8304C67.4138 66.6919 68.7641 65.1015 70.6419 64.5804Z" fill="#282828"/>
<path d="M59.261 77.6803L60.0718 77.6849C59.4519 78.4493 58.3946 78.7775 57.5103 79.1572C55.3825 80.071 53.2105 80.7269 50.9957 81.3847C47.905 82.3025 44.7 83.205 41.4908 83.5815C39.6825 83.7935 37.8349 83.8538 36.0181 83.7294C34.2302 83.6072 32.3288 83.3618 30.8747 82.2152C30.618 81.7727 30.5421 81.1674 30.4652 80.6646C30.1358 78.508 30.238 76.1885 30.546 74.031C31.0636 70.403 32.0383 66.8433 33.3792 63.4339C34.4413 60.7335 35.6696 58.1792 37.5936 55.9732C38.195 55.2836 38.8444 54.6085 39.581 54.0617C40.4591 53.41 41.5328 52.8635 42.6367 52.7514C43.243 52.69 43.8388 52.7613 44.4371 52.8524C43.9486 53.0597 43.1182 53.2336 42.7799 53.6425L42.8391 53.7597C43.2258 53.9149 43.8116 53.5941 44.2328 53.5763C44.8644 53.5497 45.3899 53.8888 45.8499 54.2822C47.5469 55.7339 48.2638 57.8766 49.1211 59.866L50.433 62.7016C51.055 63.9285 51.7691 65.1191 52.8153 66.0299C52.5599 66.2047 52.1721 66.2385 51.8877 66.383C51.4983 66.581 51.1308 66.9053 50.781 67.1689C50.5166 67.368 50.218 67.5463 49.996 67.793L50.0686 67.9071C50.7267 67.9272 51.4505 67.631 52.0422 67.3668C52.3486 67.2299 52.6952 67.0372 53.0275 66.9738C53.2174 66.9377 53.3175 66.9422 53.4671 67.0544C53.608 67.8307 52.9938 68.0613 52.861 68.7013L52.9689 68.7846C53.0746 68.7811 53.1822 68.7832 53.2799 68.7364C53.7746 68.4996 53.9628 67.6228 54.0988 67.1489L54.1702 67.1197C54.2463 67.3046 54.2994 67.4741 54.3064 67.6758C54.316 67.9438 54.2149 68.3058 54.3663 68.5253C54.5513 68.5477 54.6069 68.5752 54.7755 68.4864C55.0074 68.1721 55.0197 67.5882 55.0735 67.2027C56.3047 67.4864 57.7414 67.3733 58.9996 67.323L64.7222 66.955L63.7235 71.208C63.4352 72.2738 63.0257 73.3627 62.9382 74.4675C62.8964 74.995 62.9832 75.4525 63.1308 75.9558L59.7039 76.621C56.8836 76.9247 53.8363 76.8225 51.1621 75.7943C48.5177 74.7775 46.2158 72.7211 44.6752 70.3632L43.3016 68.0525C42.941 67.4478 42.6141 66.8568 42.0569 66.4103C42.2474 67.5202 42.6863 68.3883 43.2222 69.3747C43.9716 70.7536 44.8108 72.0214 45.8771 73.1791C47.8022 75.2694 50.1541 76.6728 52.9424 77.288C53.4882 77.4085 54.0985 77.5485 54.6555 77.5622L54.7739 77.5638C56.2577 77.7502 57.7689 77.7241 59.261 77.6803Z" fill="#282828"/>
<path d="M36.8477 79.4238L36.9494 79.3941C37.2236 79.3396 38.3094 79.3543 38.5053 79.5108L38.4178 79.6582C38.0242 79.7488 37.4191 79.7833 37.0341 79.6419C36.8875 79.588 36.9095 79.5562 36.8477 79.4238Z" fill="#E8E8E8"/>
<path d="M47.2073 58.2129L47.302 58.2191C47.4626 58.3054 47.5581 58.466 47.6422 58.6232C48.0586 59.402 48.2259 60.4402 48.4719 61.2907L49.0303 63.0545C49.3073 63.8491 49.6822 64.6099 49.9936 65.3923L49.62 65.0477C49.2364 64.6282 49.0019 64.028 48.792 63.5077C48.2823 62.244 47.9494 60.9557 47.582 59.6485C47.4647 59.2307 47.1969 58.6413 47.2073 58.2129Z" fill="#E8E8E8"/>
</g>
<defs>
<clipPath id="clip0_260_1491">
<rect width="120" height="120" fill="white"/>
</clipPath>
</defs>
</svg>
